# xmcd
#
# Track frame offsets: 
#        150
#        16112
#        41687
#        68387
#        112112
#        123287
#        147962
#        170687
#        185770
#        202220
#        219595
#        245545
#        268045
#
# Disc length: 4118 seconds
#
# Revision: 3
# Processed by: cddbd v1.5.2PL0 Copyright (c) Steve Scherf et al.
# Submitted via: ExactAudioCopy v1.0b3
#
DISCID=c510140d
DTITLE=Blues Company - So what ? [InAk Reference Edition]
DYEAR=1987
DGENRE=Blues
TTITLE0=What's Wrong ?
TTITLE1=Cold Blue Moon
TTITLE2=Stay With Me
TTITLE3=Downhome Blues
TTITLE4=Mean Woman Blues
TTITLE5=Rattlesnake Blues
TTITLE6=Pension Blues
TTITLE7=Look Here Baby
TTITLE8=Good Time Boogie
TTITLE9=Teeny Weeny Bit
TTITLE10=Drinkin' Blues
TTITLE11=Mr. TNT
TTITLE12=Black Nite
EXTD=
EXTT0=
EXTT1=
EXTT2=
EXTT3=
EXTT4=
EXTT5=
EXTT6=
EXTT7=
EXTT8=
EXTT9=
EXTT10=
EXTT11=
EXTT12=
PLAYORDER=
